<?xml version="1.0" standalone="no"?>
<!DOCTYPE svg PUBLIC "-//W3C//DTD SVG 20010904//EN"
 "http://www.w3.org/TR/2001/REC-SVG-20010904/DTD/svg10.dtd">
<svg version="1.0" xmlns="http://www.w3.org/2000/svg"
 width="864.000000pt" height="876.000000pt" viewBox="0 0 864.000000 876.000000"
 preserveAspectRatio="xMidYMid meet">

<g transform="translate(0.000000,876.000000) scale(0.100000,-0.100000)"
fill="#000000" stroke="none">
<path d="M3980 8509 c-63 -4 -153 -13 -200 -20 -47 -6 -90 -12 -97 -12 -7 0
-9 -5 -6 -10 4 -6 -1 -8 -12 -4 -9 4 -41 4 -69 0 -47 -6 -49 -8 -21 -14 21 -5
10 -7 -35 -6 -65 0 -110 -8 -110 -21 0 -4 20 -6 45 -4 36 3 45 1 45 -12 0 -12
10 -16 40 -16 29 0 40 -4 40 -15 0 -11 12 -15 43 -16 56 -2 59 -2 85 -17 12
-7 31 -11 40 -8 47 15 186 21 507 21 282 0 376 -4 485 -18 721 -97 1338 -349
1906 -778 60 -45 111 -85 114 -88 3 -3 37 -33 75 -66 185 -157 422 -411 579
-620 215 -286 435 -680 548 -980 262 -700 323 -1445 177 -2180 -129 -651 -412
-1242 -850 -1773 -113 -137 -401 -417 -549 -536 -745 -595 -1644 -899 -2580
-873 -487 14 -910 99 -1355 274 -143 56 -432 195 -450 216 -8 10 -59 38 -75
42 -17 4 -70 37 -70 44 0 4 -6 8 -13 8 -7 0 -55 28 -107 62 -605 401 -1060
912 -1381 1551 -419 837 -527 1824 -298 2735 53 210 153 500 225 653 19 40 32
77 28 84 -4 6 -3 8 3 5 10 -7 39 60 34 82 -1 7 2 10 7 7 6 -3 13 2 17 12 6 17
4 28 -5 25 -3 -1 -6 7 -6 17 0 13 6 17 21 14 15 -3 24 5 35 29 8 17 13 38 12
45 -2 7 3 11 10 10 8 -2 12 4 10 16 -2 12 1 16 9 10 7 -4 1 8 -13 27 -39 53
-44 68 -8 26 17 -20 36 -34 41 -31 6 4 6 11 -2 20 -6 7 -15 11 -20 8 -11 -6
-10 160 0 196 4 14 13 24 19 23 7 -2 12 0 13 5 0 4 2 18 5 32 3 19 -4 14 -32
-25 -20 -27 -40 -60 -45 -73 -5 -13 -21 -39 -35 -57 -15 -20 -23 -39 -18 -46
4 -7 3 -9 -3 -6 -6 4 -14 0 -17 -9 -3 -8 -2 -13 2 -10 4 2 14 1 22 -5 12 -7
10 -9 -7 -9 -20 0 -63 -42 -63 -62 0 -5 -11 -25 -25 -45 -20 -30 -22 -40 -13
-57 10 -18 9 -19 -4 -9 -13 11 -22 -2 -66 -95 -263 -557 -396 -1126 -407
-1742 -4 -205 13 -464 40 -620 3 -19 10 -62 15 -95 10 -70 15 -102 30 -170 6
-27 13 -61 16 -75 2 -14 7 -33 10 -42 3 -9 7 -26 9 -39 2 -12 12 -47 21 -78 9
-31 17 -63 19 -71 2 -8 11 -32 19 -52 9 -21 14 -38 11 -38 -2 0 0 -12 6 -27 6
-16 12 -35 14 -43 2 -8 9 -28 16 -45 6 -16 14 -39 16 -50 2 -10 10 -29 18 -42
8 -12 15 -30 15 -40 0 -10 7 -29 16 -41 8 -12 13 -22 9 -22 -3 0 5 -19 17 -43
12 -23 21 -45 20 -49 -5 -20 241 -480 286 -533 4 -5 8 -12 8 -15 1 -10 78
-126 103 -152 14 -16 21 -28 17 -28 -5 0 5 -15 20 -34 49 -56 64 -76 64 -81 0
-9 153 -198 192 -237 21 -21 35 -38 32 -38 -16 0 378 -377 436 -417 14 -9 53
-40 87 -68 92 -74 116 -92 221 -163 214 -144 510 -307 692 -380 14 -5 43 -18
65 -28 71 -31 140 -56 158 -57 9 -1 17 -4 17 -8 0 -4 15 -10 33 -14 17 -4 34
-9 37 -10 3 -1 16 -6 30 -12 49 -20 271 -82 375 -104 22 -4 73 -15 114 -24 41
-8 93 -18 115 -21 23 -3 52 -8 66 -10 14 -2 50 -6 80 -9 30 -3 82 -10 115 -16
147 -25 657 -22 880 6 22 2 63 7 90 9 28 3 88 12 135 21 47 9 96 17 110 20
100 16 403 95 495 129 6 2 12 4 15 4 18 3 200 71 275 103 159 69 371 174 454
224 9 6 43 25 76 44 68 39 289 186 308 205 7 7 17 15 23 17 6 2 29 18 50 36
21 18 84 68 139 111 117 93 406 377 518 509 42 50 77 94 77 98 0 3 13 20 30
38 16 18 30 36 30 40 0 4 9 18 21 30 25 27 129 174 129 183 0 3 13 23 29 43
60 76 286 493 274 505 -4 3 -1 6 6 6 7 0 9 5 6 10 -3 6 -2 10 2 10 5 0 21 35
37 78 16 42 33 82 38 89 13 17 108 293 101 293 -3 0 -1 6 5 12 10 13 56 166
66 220 2 15 7 31 9 35 3 5 8 26 12 48 11 66 13 78 24 122 6 23 13 63 16 90 3
26 8 62 12 78 6 30 9 48 18 120 30 225 39 569 22 800 -5 61 -9 117 -9 125 0 8
-5 47 -10 85 -6 39 -10 77 -10 85 0 8 -4 29 -8 45 -5 17 -12 55 -15 85 -3 30
-17 105 -30 165 -14 61 -27 121 -30 135 -13 56 -49 179 -72 243 -13 38 -26 76
-28 85 -2 9 -9 31 -16 47 -6 17 -13 37 -15 45 -2 8 -7 23 -12 35 -15 33 -35
80 -37 85 -1 3 -8 21 -16 40 -9 19 -24 56 -35 82 -10 27 -22 48 -26 48 -5 0
-8 7 -8 15 0 22 -182 372 -200 385 -4 3 -10 15 -14 28 -4 12 -12 22 -17 22 -5
0 -9 5 -9 10 0 36 -335 479 -461 611 -30 31 -70 73 -90 95 -43 47 -212 204
-254 236 -16 12 -32 26 -33 30 -2 5 -22 21 -45 37 -23 16 -54 41 -69 56 -16
14 -28 23 -28 20 0 -7 -22 11 -55 45 -14 14 -25 20 -25 15 0 -6 -4 -4 -9 3 -9
15 -68 56 -196 137 -49 32 -101 65 -115 75 -14 9 -70 41 -125 70 -55 29 -114
61 -131 71 -17 10 -34 16 -37 12 -4 -3 -7 0 -7 7 0 7 -3 10 -7 7 -3 -4 -14 0
-24 9 -9 8 -23 17 -31 18 -7 1 -32 12 -55 24 -24 12 -43 20 -43 17 0 -4 -12 1
-27 9 -40 22 -303 119 -420 154 -495 150 -998 207 -1503 171z m-153 -61 c-3
-8 -6 -5 -6 6 -1 11 2 17 5 13 3 -3 4 -12 1 -19z m-44 -95 c-7 -2 -21 -2 -30
0 -10 3 -4 5 12 5 17 0 24 -2 18 -5z m-2989 -1805 c-10 -14 -10 -18 -14 -50
-2 -22 -2 -22 -9 2 -5 17 -2 32 8 47 17 22 29 24 15 1z m-83 -151 c-10 -9 -11
-8 -5 6 3 10 9 15 12 12 3 -3 0 -11 -7 -18z m105 -16 c0 -11 -4 -17 -8 -15
-10 7 -10 34 0 34 4 0 8 -9 8 -19z m-26 -55 c0 -3 -4 -8 -10 -11 -5 -3 -10 -1
-10 4 0 6 5 11 10 11 6 0 10 -2 10 -4z m-43 -28 c-3 -8 -6 -5 -6 6 -1 11 2 17
5 13 3 -3 4 -12 1 -19z"/>
<path d="M3389 8419 c-11 -7 -11 -9 4 -9 9 0 17 -7 17 -15 0 -8 5 -15 10 -15
13 0 12 11 -3 32 -9 11 -18 14 -28 7z"/>
<path d="M3356 8409 c5 -9 2 -10 -10 -6 -9 4 -36 -1 -59 -10 -53 -20 -62 -28
-32 -28 12 0 21 3 19 6 -4 8 21 19 39 19 7 0 3 -7 -7 -15 -11 -8 -15 -15 -9
-15 13 0 35 25 27 32 -3 3 6 5 20 4 14 0 26 -4 26 -8 0 -5 5 -8 10 -8 17 0 11
14 -11 28 -16 10 -19 10 -13 1z"/>
<path d="M3540 8356 c0 -2 9 -6 20 -9 11 -3 18 -1 14 4 -5 9 -34 13 -34 5z"/>
<path d="M3450 8340 c8 -5 20 -10 25 -10 6 0 3 5 -5 10 -8 5 -19 10 -25 10 -5
0 -3 -5 5 -10z"/>
<path d="M3608 8343 c7 -3 16 -2 19 1 4 3 -2 6 -13 5 -11 0 -14 -3 -6 -6z"/>
<path d="M3665 8340 c22 -9 22 -9 -56 -15 -14 -1 -34 -7 -45 -14 -19 -12 -18
-12 1 -6 11 4 40 9 65 11 25 2 54 7 65 11 l20 6 -20 8 c-28 11 -56 10 -30 -1z"/>
<path d="M3510 8330 c8 -5 20 -10 25 -10 6 0 3 5 -5 10 -8 5 -19 10 -25 10 -5
0 -3 -5 5 -10z"/>
<path d="M3455 8290 c-3 -6 1 -7 9 -4 18 7 21 14 7 14 -6 0 -13 -4 -16 -10z"/>
<path d="M4228 8258 c-15 -12 -34 -48 -43 -78 -10 -30 -23 -60 -30 -65 -7 -6
-15 -21 -19 -35 -6 -19 -5 -21 3 -10 7 9 11 10 11 3 0 -7 -6 -16 -14 -20 -7
-4 -37 -83 -66 -175 l-53 -167 -76 -6 c-272 -24 -600 -104 -876 -212 -435
-172 -810 -418 -1140 -748 -506 -507 -831 -1155 -935 -1862 -67 -461 -36 -937
90 -1387 36 -129 108 -328 155 -432 19 -42 35 -81 35 -86 0 -12 -36 -54 -119
-143 -218 -232 -261 -285 -261 -317 0 -25 3 -29 10 -18 8 12 10 9 10 -11 0
-36 30 -60 76 -61 22 -1 151 24 288 55 137 32 254 57 262 57 7 0 12 -8 12 -17
-1 -10 18 -47 43 -81 73 -105 119 -187 119 -213 0 -4 6 -12 13 -16 13 -9 29
-32 50 -73 6 -13 22 -35 35 -49 12 -13 21 -29 19 -35 -2 -6 6 -16 17 -22 12
-6 20 -16 19 -22 -2 -6 6 -16 17 -22 11 -6 18 -15 15 -21 -4 -5 1 -9 9 -9 9 0
19 -14 24 -32 4 -18 12 -32 17 -30 12 5 36 -70 30 -95 -3 -12 -15 -25 -28 -28
-12 -4 -49 -18 -82 -32 -33 -14 -69 -29 -80 -33 -11 -4 -37 -15 -58 -24 -21
-9 -47 -16 -58 -16 -33 0 -119 31 -113 41 3 5 -2 9 -11 9 -17 0 -18 1 -76 50
-20 16 -39 30 -42 30 -4 0 -22 16 -41 35 -20 20 -38 35 -42 34 -15 -3 -72 56
-66 69 3 9 1 13 -4 9 -6 -3 -28 13 -51 36 -49 51 -74 71 -105 88 -22 12 -22
11 -8 -7 8 -10 18 -23 22 -29 117 -165 365 -437 532 -584 209 -183 496 -389
659 -473 31 -16 57 -33 57 -39 0 -5 4 -8 8 -7 5 2 38 -11 73 -29 35 -17 87
-42 116 -56 29 -14 49 -29 45 -33 -4 -5 -1 -4 7 3 11 9 17 9 28 -3 8 -8 26
-16 41 -20 15 -3 50 -16 79 -29 57 -27 66 -11 10 18 -18 9 -40 23 -50 29 -14
11 -19 10 -26 -1 -7 -11 -10 -9 -16 8 -5 16 -12 20 -23 16 -9 -3 -14 -3 -10 0
11 11 -29 44 -95 78 -34 17 -66 37 -70 44 -4 7 -12 13 -17 13 -17 0 -117 69
-123 85 -4 8 -13 15 -20 15 -8 0 -30 12 -49 28 -20 15 -46 34 -58 42 -12 8
-48 40 -80 70 -91 86 -121 110 -136 110 -22 0 -16 19 15 51 21 21 39 29 64 29
33 0 67 24 67 48 0 7 16 12 40 12 22 0 40 5 40 10 0 6 11 10 24 10 14 0 33 11
44 25 21 27 25 26 98 -7 11 -5 24 -8 30 -7 5 2 49 -16 98 -39 49 -23 94 -42
100 -42 6 0 20 -7 30 -15 11 -8 28 -15 38 -15 10 0 18 -4 18 -9 0 -6 27 -15
61 -22 33 -7 55 -15 49 -19 -7 -4 4 -10 24 -13 19 -3 50 -12 68 -20 56 -26
107 -39 119 -31 8 4 9 3 5 -5 -6 -9 0 -10 21 -6 19 5 24 4 14 -3 -18 -13 0
-18 94 -28 39 -4 61 -9 50 -12 -14 -3 -7 -8 25 -17 25 -7 54 -15 65 -20 17 -6
17 -5 5 5 -12 10 -10 11 10 5 14 -3 31 -7 38 -7 6 -1 12 -4 12 -8 0 -11 63
-10 80 0 13 8 12 10 -4 10 -42 0 -414 128 -494 169 -9 5 -66 33 -127 62 -169
82 -470 266 -492 303 -4 6 6 2 22 -9 477 -316 939 -495 1475 -572 179 -25 693
-25 865 0 394 59 690 150 1030 317 480 237 891 584 1218 1031 l48 65 277 -61
c289 -64 321 -67 350 -28 26 35 15 76 -38 135 -27 30 -47 58 -45 62 3 3 2 4
-1 1 -10 -7 -45 36 -38 46 3 5 0 9 -6 9 -16 0 -72 58 -105 108 -26 39 -45 58
-30 30 4 -7 -22 18 -58 56 l-65 70 25 50 c76 150 176 448 227 676 66 298 93
702 67 986 -49 517 -201 986 -467 1431 -72 122 -94 171 -41 95 98 -142 233
-397 310 -587 51 -128 117 -321 117 -345 0 -10 5 -22 10 -25 6 -4 8 -10 5 -15
-3 -5 -2 -11 3 -14 4 -2 9 -17 10 -33 1 -15 7 -41 12 -58 8 -23 9 -17 4 30 -4
33 -6 73 -6 88 1 17 -3 25 -9 21 -7 -4 -9 1 -4 15 3 11 3 21 -2 21 -4 0 -8 14
-9 31 -1 16 -8 56 -17 87 -29 106 -48 177 -58 217 -6 21 -14 44 -18 50 -4 5
-14 33 -21 60 -7 28 -17 55 -21 61 -5 6 -20 46 -35 90 -15 43 -30 84 -33 89
-4 6 -13 29 -21 53 -7 23 -17 42 -21 42 -5 0 -11 15 -15 34 -3 19 -14 42 -24
51 -10 9 -16 24 -13 35 3 10 -4 27 -16 39 -12 12 -21 30 -21 41 0 12 -8 33
-17 47 l-17 26 39 -5 40 -5 -3 53 c-4 49 -1 56 27 85 17 17 37 29 44 26 9 -3
11 8 8 41 -4 51 15 118 36 126 9 4 18 -5 24 -24 6 -16 14 -29 17 -28 8 3 102
-88 102 -97 0 -3 13 -18 28 -33 15 -15 33 -39 40 -54 6 -16 18 -28 26 -28 8 0
16 -10 18 -22 2 -13 10 -23 18 -23 8 0 15 -7 16 -15 0 -23 15 -50 24 -45 4 3
14 -10 21 -28 13 -30 28 -52 57 -82 6 -8 12 -18 12 -24 0 -5 6 -14 13 -18 7
-4 21 -24 30 -43 30 -60 71 -129 90 -151 10 -11 22 -32 28 -46 5 -14 12 -23
15 -20 7 7 -11 65 -42 135 -13 29 -24 55 -24 57 0 24 -169 338 -216 402 -13
17 -24 34 -24 37 0 3 -40 61 -88 128 -178 249 -356 450 -567 641 -114 102
-333 273 -341 265 -7 -8 37 -53 48 -50 6 2 8 -4 4 -13 -4 -10 3 -19 19 -27 14
-6 25 -17 25 -25 0 -7 6 -13 13 -13 6 0 30 -19 52 -43 22 -23 43 -41 47 -40 4
2 5 -3 2 -10 -2 -7 11 -28 31 -47 19 -19 35 -38 35 -43 0 -5 14 -22 30 -39 17
-16 30 -34 30 -40 0 -5 14 -28 32 -51 18 -22 34 -45 35 -51 14 -53 14 -81 -2
-119 -10 -23 -21 -51 -25 -62 -24 -63 -57 -133 -72 -149 -10 -11 -18 -25 -18
-32 0 -21 -30 -24 -62 -6 -17 9 -39 21 -49 27 -11 5 -19 13 -19 17 0 5 -9 8
-20 8 -11 0 -20 4 -20 10 0 10 -60 45 -73 42 -4 -1 -6 2 -5 7 4 11 -41 51 -57
51 -6 0 -27 15 -47 33 -47 43 -83 61 -100 51 -10 -6 -10 -5 1 9 12 15 11 17
-3 17 -9 0 -16 -4 -16 -10 0 -5 -4 -10 -9 -10 -4 0 -8 10 -7 22 1 14 -6 24
-16 26 -10 2 -18 -1 -18 -7 0 -6 8 -8 18 -5 14 5 14 4 2 -4 -10 -8 -19 -6 -35
9 -11 11 -56 46 -100 77 -486 348 -1021 556 -1598 622 -53 6 -105 9 -115 6
-15 -5 -29 31 -101 264 -47 149 -92 277 -101 285 -31 28 -74 29 -102 3z m123
-242 c43 -138 105 -337 141 -453 5 -18 14 -33 19 -33 5 0 9 -10 9 -22 0 -13 8
-32 17 -43 12 -16 14 -16 10 -3 -3 10 -2 20 3 23 6 4 10 11 10 18 0 6 -7 2
-15 -9 -14 -18 -14 -18 -15 5 0 19 4 22 23 17 12 -3 28 -6 35 -6 7 0 10 -4 7
-10 -8 -13 -3 -13 30 0 17 7 24 7 20 0 -3 -6 0 -10 7 -10 10 0 9 -3 -1 -9 -12
-8 -9 -15 17 -39 27 -25 32 -37 32 -76 0 -25 5 -46 10 -46 6 0 10 -18 10 -40
0 -29 4 -40 15 -40 11 0 15 -11 15 -40 0 -29 4 -40 15 -40 11 0 15 -11 15 -40
0 -22 5 -40 10 -40 6 0 10 -18 10 -40 0 -29 4 -40 15 -40 11 0 15 -11 15 -40
0 -29 4 -40 15 -40 13 0 15 -20 15 -120 0 -73 4 -120 10 -120 6 0 10 -73 10
-200 0 -127 -4 -200 -10 -200 -15 0 -12 -78 3 -83 9 -3 8 -12 -5 -35 -20 -33
-23 -46 -9 -38 4 3 6 -6 3 -21 -3 -16 -1 -24 5 -20 6 4 9 -4 7 -18 -1 -18 3
-25 14 -25 13 0 14 -2 4 -8 -10 -7 -10 -15 -2 -37 6 -15 8 -30 6 -33 -3 -2 -1
-13 4 -22 6 -11 6 -68 0 -151 -5 -74 -11 -176 -15 -227 l-6 -93 31 17 c16 10
30 22 30 26 0 4 4 8 9 8 11 0 159 85 1051 598 370 213 391 225 395 221 11 -12
165 -283 162 -286 -12 -11 -37 15 -74 76 -24 38 -43 72 -43 75 0 5 -32 58 -57
95 -1 2 -19 -9 -40 -25 -21 -16 -47 -32 -58 -36 -18 -5 -18 -6 -2 -7 11 -1 32
8 49 20 16 12 32 18 35 15 4 -3 1 -6 -5 -6 -7 0 -12 -4 -12 -10 0 -5 8 -10 17
-10 14 0 15 -2 4 -12 -11 -10 -14 -10 -18 0 -8 20 -22 13 -16 -8 4 -13 11 -19
22 -15 12 3 17 -3 20 -23 6 -41 5 -115 -2 -137 -3 -11 -6 -24 -6 -28 -1 -5 -6
-5 -11 -2 -13 8 -42 -14 -34 -26 3 -5 -2 -9 -10 -9 -8 0 -21 -9 -29 -20 -8
-11 -18 -17 -23 -12 -4 4 -3 0 3 -8 10 -13 8 -16 -15 -15 -16 0 -27 -5 -27
-14 0 -8 -6 -16 -14 -19 -9 -3 -11 0 -5 9 6 12 5 11 -10 0 -10 -9 -13 -17 -7
-21 6 -3 -15 -19 -47 -35 -31 -17 -59 -33 -62 -36 -3 -4 -30 -20 -60 -36 -30
-17 -72 -42 -94 -56 -21 -15 -42 -24 -47 -21 -5 3 -9 0 -9 -6 0 -6 -8 -14 -17
-17 -10 -4 -53 -29 -96 -55 -43 -26 -80 -48 -83 -48 -2 0 -21 -11 -42 -23 -20
-13 -68 -42 -107 -64 -211 -122 -519 -302 -580 -338 l-70 -41 -3 -172 c-2
-160 -1 -172 16 -172 9 0 80 -36 155 -81 l138 -81 137 79 c75 43 158 91 185
106 87 49 259 148 377 217 63 37 178 103 255 147 77 45 255 147 395 228 140
81 269 155 286 166 l31 19 78 -138 c43 -75 80 -140 82 -144 2 -5 0 -8 -6 -8
-13 0 -55 41 -58 57 -2 7 -20 41 -41 75 -20 35 -43 76 -50 91 l-12 28 -33 -19
c-37 -23 -190 -112 -257 -150 -25 -14 -115 -66 -200 -115 -335 -194 -587 -341
-638 -369 -46 -26 -51 -32 -40 -47 12 -14 11 -14 -4 -3 -14 12 -33 4 -142 -59
-69 -40 -124 -74 -122 -76 3 -3 117 55 134 70 8 6 26 11 41 12 35 2 53 13 44
28 -4 7 5 4 20 -5 35 -24 48 -23 18 1 l-25 19 26 -5 c42 -8 112 37 76 49 -7 3
-5 7 6 11 9 4 15 3 12 -2 -3 -5 1 -12 10 -15 24 -9 62 -7 69 4 3 6 -2 8 -12 5
-28 -9 17 10 55 23 28 9 36 8 53 -9 26 -26 24 -32 -8 -25 -16 3 -22 3 -15 0 6
-3 12 -14 12 -25 0 -10 -6 -19 -12 -19 -15 -1 -68 -45 -68 -57 0 -13 -67 -63
-84 -63 -9 0 -16 -7 -16 -15 0 -9 -11 -20 -25 -25 -14 -5 -28 -17 -31 -25 -4
-8 -12 -15 -20 -15 -7 0 -19 -8 -26 -18 -7 -10 -25 -27 -40 -36 -15 -10 -26
-22 -23 -26 3 -5 -4 -11 -15 -15 -11 -3 -20 -11 -20 -16 0 -6 -4 -8 -9 -4 -5
3 -15 -11 -21 -30 -6 -19 -19 -39 -28 -45 -14 -8 -13 -9 9 -10 31 0 359 -183
440 -245 118 -92 193 -225 224 -398 19 -105 53 -175 116 -242 111 -118 290
-158 442 -100 10 4 84 -67 238 -232 419 -447 609 -655 609 -668 0 -13 -27 -28
-39 -21 -3 2 -251 61 -551 131 -300 69 -561 130 -581 136 -32 8 -38 14 -44 47
-23 127 -140 261 -266 303 -19 7 -41 18 -50 26 -10 8 -43 14 -91 14 -61 1 -97
-6 -189 -36 -109 -35 -121 -37 -257 -38 l-142 -1 -93 47 c-165 84 -372 211
-375 231 -4 17 -1 17 27 -4 18 -12 62 -39 99 -60 37 -20 114 -65 171 -98 61
-36 110 -58 119 -55 10 4 13 2 8 -5 -4 -7 -2 -12 3 -12 6 0 11 8 11 17 0 19
-86 103 -106 103 -8 0 -14 5 -14 11 0 7 -11 22 -24 34 -13 12 -27 32 -31 44
-3 12 -12 20 -19 19 -15 -4 -86 33 -86 44 0 5 8 8 17 8 14 0 15 2 4 13 -11 10
-14 10 -18 0 -5 -15 -33 -18 -33 -3 0 30 106 32 142 2 7 -5 31 -12 53 -15 22
-2 60 -13 85 -22 25 -10 73 -18 107 -19 33 0 59 -4 56 -8 -5 -10 6 -9 31 1 16
6 11 10 -25 19 -24 6 -55 22 -69 34 -14 13 -50 36 -80 52 -30 16 -62 35 -71
42 -8 8 -19 14 -23 14 -4 0 -74 38 -156 85 -82 47 -153 85 -158 85 -5 0 -12 7
-16 15 -3 8 -3 15 -1 15 3 0 50 -26 106 -57 112 -64 122 -70 295 -170 142 -82
191 -98 277 -91 247 20 348 320 167 499 -22 22 -40 37 -40 34 0 -3 -9 -1 -20
5 -11 6 -20 16 -19 23 0 9 2 9 6 -1 2 -6 9 -10 14 -6 5 3 9 0 9 -5 0 -6 4 -10
8 -8 11 2 67 -39 99 -71 12 -13 30 -44 39 -68 18 -48 34 -59 26 -19 -2 14 -8
25 -11 25 -4 0 -7 18 -7 40 1 39 -7 52 -18 28 -3 -7 -3 -2 0 12 3 17 -3 37
-20 60 -14 19 -31 46 -38 60 -18 36 -50 70 -65 70 -8 0 -13 12 -13 28 l0 29
125 -42 c116 -38 126 -40 140 -25 8 9 15 21 15 26 -2 23 -198 149 -385 248
-11 6 -27 16 -35 22 -8 6 -22 14 -31 17 -27 9 -18 -52 10 -74 29 -24 42 -99
17 -99 -9 0 -16 -4 -16 -10 0 -5 -18 -10 -40 -10 -24 0 -40 5 -40 12 0 9 -3 9
-11 1 -9 -9 -16 -9 -30 0 -15 9 -24 9 -40 -1 -12 -8 -18 -9 -15 -3 10 15 -25
30 -88 37 -36 4 -56 3 -56 -4 0 -9 11 -16 35 -22 6 -1 21 -10 35 -20 14 -9 35
-21 48 -24 12 -4 20 -11 18 -15 -3 -4 11 -13 30 -20 18 -7 34 -16 34 -21 0 -5
6 -7 14 -4 8 3 17 0 21 -6 13 -21 -4 -23 -32 -4 -15 10 -40 24 -55 31 -16 7
-28 16 -28 21 0 5 -6 9 -12 9 -21 0 -118 64 -118 77 0 8 -12 13 -29 12 -20 -1
-27 -5 -23 -15 3 -9 1 -12 -6 -7 -7 4 -12 2 -12 -3 0 -6 -9 -11 -20 -11 -11 0
-23 -7 -26 -15 -3 -8 -15 -17 -27 -21 -12 -4 -42 -21 -68 -38 -26 -17 -60 -38
-76 -47 -30 -16 -30 -16 -37 -135 -4 -66 -11 -145 -15 -176 -4 -32 -4 -58 0
-58 5 0 13 -19 19 -42 15 -58 31 -88 47 -88 8 0 13 -12 13 -34 0 -18 7 -39 15
-46 8 -7 15 -9 15 -6 0 4 8 0 17 -10 16 -15 16 -17 -2 -30 -10 -8 -36 -14 -57
-14 -21 0 -38 -4 -38 -8 0 -5 -11 -15 -25 -22 -15 -8 -25 -22 -25 -35 0 -12
-9 -31 -20 -43 -12 -13 -20 -35 -20 -56 0 -19 -4 -36 -10 -38 -6 -2 -4 -24 5
-58 8 -30 15 -71 15 -90 0 -24 3 -31 9 -21 6 9 11 -26 16 -95 7 -127 13 -166
25 -159 4 3 11 -55 14 -128 10 -223 16 -1061 8 -1073 -10 -16 -272 -17 -272
-2 0 9 -3 9 -12 0 -7 -7 -16 -12 -20 -12 -4 0 -8 433 -8 963 l-1 962 -125 70
c-69 39 -136 79 -149 91 l-23 21 -45 -26 c-25 -14 -92 -53 -149 -85 l-104 -60
-3 -184 c-2 -144 -6 -188 -17 -199 -9 -9 -14 -36 -14 -76 -1 -34 -7 -91 -16
-127 -8 -36 -17 -81 -20 -100 -3 -19 -10 -65 -16 -102 -7 -47 -14 -68 -24 -68
-8 0 -14 -6 -14 -13 0 -8 -9 -22 -20 -32 -19 -17 -21 -17 -40 0 -11 10 -20 25
-20 34 0 12 -2 13 -9 3 -5 -8 -13 21 -20 77 -7 50 -16 89 -21 86 -5 -3 -11 30
-15 72 -3 43 -7 87 -9 98 -2 11 -3 -239 -3 -555 0 -318 3 -555 8 -530 4 25 8
63 8 85 1 23 6 46 11 51 6 6 17 82 24 170 7 87 14 148 16 134 2 -22 3 -21 12
10 22 84 30 128 29 178 -1 40 2 52 14 52 11 0 15 -11 15 -40 0 -22 5 -40 10
-40 6 0 10 18 10 40 0 22 5 40 11 40 6 0 10 -22 9 -53 -1 -57 24 -224 46 -302
13 -45 22 -106 23 -158 1 -10 5 -16 10 -12 16 9 19 -24 23 -245 2 -118 7 -218
12 -222 5 -3 -66 -6 -157 -7 l-167 0 0 860 c0 574 3 867 10 880 6 10 9 19 7
19 -3 0 -92 -50 -198 -112 -227 -130 -254 -143 -348 -164 -39 -9 -68 -20 -65
-25 3 -5 -33 -7 -81 -4 -62 4 -115 15 -190 40 -78 26 -123 35 -171 35 -45 0
-63 3 -58 11 4 8 -4 9 -27 4 -82 -16 -111 -28 -166 -65 -89 -59 -149 -142
-174 -241 -15 -58 26 -43 -364 -133 -733 -170 -759 -177 -781 -197 -23 -21
-54 -17 -54 8 0 8 66 85 148 172 81 86 234 251 341 366 107 116 228 245 269
287 l74 78 56 -16 c78 -23 199 -15 272 18 70 32 158 112 193 177 17 30 37 97
52 166 16 76 37 142 60 190 35 70 112 169 159 205 35 27 258 160 268 160 5 0
41 18 80 41 l70 41 -38 22 c-22 12 -115 67 -209 121 -93 54 -226 131 -295 170
-167 96 -459 265 -706 408 -111 64 -206 117 -212 117 -14 0 -41 -51 -35 -67 2
-6 -1 -14 -6 -18 -25 -15 -10 -46 34 -73 25 -16 42 -32 38 -36 -5 -5 -1 -7 7
-4 8 2 46 -14 85 -37 38 -23 99 -57 135 -75 36 -19 67 -37 70 -41 4 -6 28 -19
150 -85 19 -11 40 -25 48 -31 7 -7 24 -16 38 -19 13 -3 24 -9 24 -13 0 -3 17
-15 38 -26 86 -46 154 -93 141 -99 -8 -3 -4 -3 9 0 12 3 22 1 22 -5 0 -6 4
-10 8 -8 11 3 102 -46 102 -55 0 -5 -4 -8 -10 -8 -5 0 -10 -5 -10 -12 0 -9 3
-9 12 0 15 15 31 16 22 0 -5 -8 -2 -9 11 -4 18 7 55 -18 55 -37 0 -6 -11 0
-24 12 -16 15 -25 18 -28 10 -2 -6 -27 -14 -56 -17 -43 -4 -52 -2 -52 12 0 12
-10 16 -40 16 -22 0 -40 5 -40 10 0 6 -18 10 -40 10 -29 0 -40 4 -40 15 0 11
-11 15 -40 15 -29 0 -40 4 -40 15 0 11 -11 15 -40 15 -22 0 -40 5 -40 10 0 6
-21 10 -46 10 -38 0 -51 5 -74 30 -33 35 -37 36 -42 13 -3 -14 -10 -9 -27 19
-24 40 -51 57 -51 32 0 -24 -37 1 -57 39 -9 18 -18 26 -20 20 -7 -19 -23 -16
-47 7 -37 35 -73 72 -92 93 -17 20 -18 20 -24 2 -6 -18 -9 -17 -34 10 -14 17
-33 37 -41 45 -9 8 -27 26 -40 40 -14 14 -32 32 -40 40 -9 8 -27 26 -40 40
-14 14 -32 32 -40 40 -9 8 -27 26 -40 40 -14 14 -32 32 -40 40 -9 8 -28 26
-43 40 -23 21 -24 25 -10 28 23 5 7 38 -23 47 -14 5 -19 13 -16 26 3 10 1 19
-4 19 -5 0 -9 5 -9 11 0 5 4 7 10 4 5 -3 10 4 9 17 -1 23 31 118 42 128 3 3 9
17 13 33 13 54 140 305 229 452 55 90 199 297 227 325 3 3 25 30 50 60 138
171 396 415 564 535 16 11 50 37 77 58 27 20 51 37 53 37 5 0 66 39 91 57 6 5
40 23 75 42 36 19 72 40 81 47 8 8 21 14 27 14 7 0 12 5 12 10 0 6 5 10 12 10
6 0 52 20 102 44 126 61 147 70 268 115 238 90 529 159 782 186 77 8 140 16
141 18 2 1 26 76 54 167 90 286 153 475 163 488 20 24 38 -10 89 -172z m362
-513 c-7 -2 -21 -2 -30 0 -10 3 -4 5 12 5 17 0 24 -2 18 -5z m2271 -1193 c20
-28 32 -50 28 -50 -4 0 -25 25 -45 56 -46 68 -33 63 17 -6z m-219 -1007 c40
-19 44 -29 15 -38 -11 -4 -31 -17 -43 -29 -13 -13 -40 -26 -60 -30 -20 -4 -37
-10 -37 -14 0 -4 -14 -13 -31 -21 -24 -10 -36 -11 -56 -2 -21 10 -23 14 -12
27 7 9 24 20 36 25 13 5 22 14 21 20 -2 6 26 25 62 43 36 18 66 34 67 34 1 1
18 -6 38 -15z m-5596 -37 c-9 -8 -10 -7 -5 7 3 10 7 24 7 30 1 7 3 4 6 -7 3
-10 -1 -23 -8 -30z m-6 -36 c-3 -11 -7 -20 -9 -20 -2 0 -4 9 -4 20 0 11 4 20
9 20 5 0 7 -9 4 -20z m14 -62 c-3 -8 -6 -5 -6 6 -1 11 2 17 5 13 3 -3 4 -12 1
-19z m5299 -56 c-4 -3 -11 -1 -18 6 -8 8 -8 15 3 28 13 16 14 16 17 -5 2 -13
1 -25 -2 -29z m84 38 c0 -13 -30 -13 -50 0 -11 7 -7 10 18 10 17 0 32 -4 32
-10z m-3976 -672 c-5 -7 -2 -9 8 -6 8 4 21 2 29 -3 11 -7 10 -9 -6 -9 -11 0
-30 -3 -42 -6 -14 -4 -23 -2 -23 5 0 5 6 8 14 5 11 -4 13 0 9 17 -4 15 -3 20
6 15 6 -4 8 -12 5 -18z m-54 -4 c0 -14 -3 -14 -15 -4 -8 7 -15 14 -15 16 0 2
7 4 15 4 8 0 15 -7 15 -16z m179 -61 c2 -2 -3 -3 -12 -3 -9 0 -22 10 -28 23
l-12 22 24 -20 c13 -11 26 -21 28 -22z m106 -53 c3 -6 -1 -7 -9 -4 -18 7 -21
14 -7 14 6 0 13 -4 16 -10z m2675 -305 c17 -9 30 -20 30 -26 0 -6 5 -7 12 -3
7 4 8 3 4 -4 -8 -13 -46 5 -46 21 0 4 -4 6 -9 3 -5 -3 -14 1 -21 9 -16 19 -7
19 30 0z m110 -77 c0 -11 -49 23 -50 35 0 4 11 0 25 -9 14 -9 25 -20 25 -26z
m35 -9 c11 -17 -1 -21 -15 -4 -8 9 -8 15 -2 15 6 0 14 -5 17 -11z m-750 -579
c3 -5 1 -10 -4 -10 -6 0 -11 5 -11 10 0 6 2 10 4 10 3 0 8 -4 11 -10z m-2640
-1590 c3 -5 1 -10 -4 -10 -6 0 -11 5 -11 10 0 6 2 10 4 10 3 0 8 -4 11 -10z
m85 -77 c0 -7 -58 36 -66 49 -4 7 9 -1 29 -16 20 -16 37 -30 37 -33z"/>
<path d="M4590 7310 c0 -5 5 -10 11 -10 5 0 7 5 4 10 -3 6 -8 10 -11 10 -2 0
-4 -4 -4 -10z"/>
<path d="M4595 7230 c-3 -5 -1 -10 4 -10 6 0 11 5 11 10 0 6 -2 10 -4 10 -3 0
-8 -4 -11 -10z"/>
<path d="M4600 6997 c-42 -36 -93 -114 -85 -128 5 -7 4 -10 -2 -6 -6 4 -16 -7
-22 -25 -9 -24 -8 -34 1 -40 9 -5 9 -8 2 -8 -7 0 -15 -7 -18 -16 -3 -8 -2 -12
4 -9 6 3 10 -1 10 -10 0 -9 -5 -13 -11 -9 -7 4 -9 0 -6 -12 3 -11 8 -44 12
-74 7 -62 25 -103 25 -58 0 38 38 134 63 162 12 13 35 38 50 56 17 18 35 29
43 26 11 -4 13 1 8 22 -4 15 -11 35 -16 46 -7 12 -7 16 0 12 6 -3 4 7 -4 24
-8 16 -16 39 -17 50 -2 25 -6 25 -37 -3z"/>
<path d="M3906 6973 c-20 -104 -21 -99 29 -155 50 -56 88 -123 100 -175 10
-50 22 -48 29 5 8 62 -9 154 -41 217 -26 53 -89 135 -103 135 -5 0 -11 -12
-14 -27z"/>
<path d="M4703 6974 c-3 -8 -2 -19 3 -24 5 -5 9 1 9 16 0 28 -3 30 -12 8z"/>
<path d="M4703 6340 c-1 -11 2 -22 6 -24 4 -3 7 4 6 14 -2 27 -10 33 -12 10z"/>
<path d="M4770 6340 c0 -5 5 -10 10 -10 6 0 10 5 10 10 0 6 -4 10 -10 10 -5 0
-10 -4 -10 -10z"/>
<path d="M4760 6300 c0 -5 5 -10 11 -10 5 0 7 5 4 10 -3 6 -8 10 -11 10 -2 0
-4 -4 -4 -10z"/>
<path d="M4770 6246 c0 -2 8 -10 18 -17 15 -13 16 -12 3 4 -13 16 -21 21 -21
13z"/>
<path d="M6290 6216 c0 -2 7 -7 16 -10 8 -3 12 -2 9 4 -6 10 -25 14 -25 6z"/>
<path d="M4813 6188 c-4 -7 -1 -8 7 -3 9 6 12 4 8 -7 -4 -8 -2 -21 3 -29 7
-11 11 -10 23 6 17 22 20 35 9 36 -5 0 -16 2 -25 4 -10 2 -21 -2 -25 -7z m37
-13 c0 -8 -4 -15 -10 -15 -5 0 -7 7 -4 15 4 8 8 15 10 15 2 0 4 -7 4 -15z"/>
<path d="M4208 6141 c-16 -5 -28 -7 -28 -4 0 3 -7 0 -15 -7 -8 -6 -20 -8 -26
-4 -8 5 -9 3 -4 -6 6 -10 4 -12 -9 -7 -23 9 -91 -55 -124 -117 l-27 -51 -3
-331 c-3 -293 -1 -331 13 -331 13 0 15 28 15 221 0 278 8 313 90 396 63 65
100 80 196 80 107 0 212 -79 242 -183 9 -32 12 -457 3 -427 -7 22 -9 21 -12
-15 -3 -29 -8 -40 -20 -39 -11 1 -16 -6 -14 -20 2 -26 -32 -66 -57 -66 -10 0
-18 -4 -18 -10 0 -5 -4 -10 -10 -10 -5 0 -6 8 -3 18 6 15 5 16 -11 2 -12 -9
-14 -16 -7 -18 8 -3 6 -9 -6 -19 -10 -8 10 0 44 17 33 18 69 39 80 48 10 10
24 17 31 18 6 1 17 2 22 3 6 0 10 114 10 316 0 290 -2 318 -20 368 -23 61 -84
127 -144 157 -48 23 -148 34 -188 21z m-221 -283 c-3 -8 -6 -5 -6 6 -1 11 2
17 5 13 3 -3 4 -12 1 -19z m0 -90 c-3 -8 -6 -5 -6 6 -1 11 2 17 5 13 3 -3 4
-12 1 -19z m0 -360 c-1 -62 -3 -14 -3 107 0 121 2 172 3 113 2 -59 2 -158 0
-220z m539 -113 c-23 -17 -36 -19 -36 -6 0 5 10 12 23 14 12 2 24 5 27 5 3 1
-4 -5 -14 -13z"/>
<path d="M2006 6005 c-9 -14 -16 -31 -15 -38 1 -6 -2 -20 -6 -31 -5 -11 -4
-26 2 -35 8 -14 226 -144 423 -254 30 -17 105 -60 165 -95 61 -36 135 -79 165
-95 30 -17 78 -46 107 -64 29 -18 54 -33 57 -33 3 0 40 -21 83 -46 81 -48 133
-79 168 -98 11 -6 38 -23 60 -37 22 -14 47 -28 55 -32 8 -4 44 -25 80 -46 36
-22 88 -52 115 -67 28 -15 74 -42 103 -60 29 -19 57 -34 62 -34 5 0 11 -42 13
-92 2 -56 4 -25 5 77 l2 170 -53 29 c-28 16 -146 84 -262 151 -367 213 -1250
722 -1282 739 -30 15 -32 15 -47 -9z"/>
<path d="M6120 5850 c-8 -5 -10 -10 -5 -10 6 0 17 5 25 10 8 5 11 10 5 10 -5
0 -17 -5 -25 -10z"/>
<path d="M3644 5655 c0 -93 2 -133 3 -88 2 45 2 122 0 170 -1 48 -3 12 -3 -82z"/>
<path d="M1226 5413 c-6 -14 -5 -15 5 -6 7 7 10 15 7 18 -3 3 -9 -2 -12 -12z"/>
<path d="M4125 5220 c-3 -6 1 -7 9 -4 18 7 21 14 7 14 -6 0 -13 -4 -16 -10z"/>
<path d="M4326 5212 c-2 -4 4 -8 14 -8 10 0 16 4 14 8 -3 4 -9 8 -14 8 -5 0
-11 -4 -14 -8z"/>
<path d="M4325 5181 c-3 -5 0 -13 6 -17 7 -4 9 -3 5 4 -3 5 0 13 6 15 9 4 10
6 1 6 -6 1 -14 -3 -18 -8z"/>
<path d="M4255 5148 c8 -19 30 -24 40 -9 3 5 0 13 -6 17 -8 4 -9 3 -5 -4 10
-16 -7 -15 -23 1 -10 10 -11 9 -6 -5z"/>
<path d="M1535 5030 c3 -5 1 -10 -4 -10 -6 0 -11 -5 -11 -11 0 -8 5 -8 15 1
17 14 20 30 4 30 -5 0 -7 -4 -4 -10z"/>
<path d="M3550 4746 c0 -2 8 -10 18 -17 15 -13 16 -12 3 4 -13 16 -21 21 -21
13z"/>
<path d="M4113 4667 l-142 -82 -1 -175 c0 -162 1 -176 18 -177 15 -1 101 -48
202 -109 14 -8 39 -22 57 -31 l31 -16 132 77 c72 42 136 76 141 76 6 0 8 69 7
171 l-3 171 -140 80 c-77 45 -141 85 -143 89 -6 14 -9 12 -159 -74z"/>
<path d="M3405 4670 c-16 -7 -17 -9 -3 -9 9 -1 20 4 23 9 7 11 7 11 -20 0z"/>
<path d="M3311 4656 c-8 -10 -9 -16 -1 -21 6 -4 9 -1 8 7 -2 8 6 12 22 10 19
-2 22 0 10 8 -20 13 -25 12 -39 -4z"/>
<path d="M3450 4660 c-9 -6 -10 -10 -3 -10 6 0 15 5 18 10 8 12 4 12 -15 0z"/>
<path d="M5365 4660 c-3 -6 1 -7 9 -4 18 7 21 14 7 14 -6 0 -13 -4 -16 -10z"/>
<path d="M3404 4634 c-18 -14 -18 -15 4 -4 12 6 22 13 22 15 0 8 -5 6 -26 -11z"/>
<path d="M2257 4619 c7 -7 15 -10 18 -7 3 3 -2 9 -12 12 -14 6 -15 5 -6 -5z"/>
<path d="M5295 4620 c-3 -6 1 -7 9 -4 18 7 21 14 7 14 -6 0 -13 -4 -16 -10z"/>
<path d="M3356 4608 c3 -5 10 -6 15 -3 13 9 11 12 -6 12 -8 0 -12 -4 -9 -9z"/>
<path d="M2415 4560 c3 -5 14 -10 23 -10 15 0 15 2 2 10 -20 13 -33 13 -25 0z"/>
<path d="M2425 4530 c3 -5 8 -10 11 -10 2 0 4 5 4 10 0 6 -5 10 -11 10 -5 0
-7 -4 -4 -10z"/>
<path d="M3185 4128 c-99 -57 -218 -126 -265 -153 -154 -87 -201 -150 -208
-276 -5 -86 2 -129 21 -129 7 0 21 -16 32 -36 50 -93 160 -150 272 -141 58 4
78 13 216 93 84 48 207 119 275 158 l122 70 0 167 0 167 -140 79 c-76 43 -140
84 -142 91 -2 9 -66 -23 -183 -90z"/>
<path d="M5950 4055 c-10 -13 -10 -19 5 -35 10 -11 24 -20 32 -20 7 0 13 -6
14 -12 0 -7 5 -2 10 11 8 19 5 29 -12 48 -26 27 -32 28 -49 8z m25 -5 c3 -5 1
-10 -4 -10 -6 0 -11 5 -11 10 0 6 2 10 4 10 3 0 8 -4 11 -10z"/>
<path d="M6018 3987 c-3 -15 6 -32 29 -56 18 -19 33 -32 33 -29 0 8 -50 108
-54 108 -2 0 -6 -10 -8 -23z"/>
<path d="M6081 3854 c0 -11 3 -14 6 -6 3 7 2 16 -1 19 -3 4 -6 -2 -5 -13z"/>
<path d="M4520 3577 c19 -14 37 -23 39 -21 8 7 -23 32 -49 39 -21 6 -19 3 10
-18z"/>
<path d="M4578 3547 c9 -10 13 -172 14 -563 2 -420 5 -520 12 -426 5 67 12
122 17 122 5 0 9 21 9 48 0 26 5 63 11 82 6 19 14 64 19 100 5 36 14 101 20
145 22 154 29 200 35 233 7 28 5 32 -14 32 -11 0 -21 6 -21 13 0 7 -9 31 -21
52 -11 22 -21 54 -22 71 -1 18 -5 30 -9 27 -5 -2 -8 5 -8 16 0 12 -4 21 -10
21 -5 0 -10 6 -10 14 0 8 -7 17 -16 20 -13 5 -14 4 -6 -7z"/>
<path d="M5795 3489 c-4 -6 -5 -12 -2 -15 2 -3 7 2 10 11 7 17 1 20 -8 4z"/>
<path d="M5515 3351 c-3 -5 -2 -12 3 -15 5 -3 9 1 9 9 0 17 -3 19 -12 6z"/>
<path d="M5558 3343 c7 -3 16 -2 19 1 4 3 -2 6 -13 5 -11 0 -14 -3 -6 -6z"/>
<path d="M5342 3131 c-10 -6 -10 -10 2 -20 10 -8 16 -9 21 -1 3 5 1 10 -5 10
-6 0 -8 5 -5 10 7 12 4 12 -13 1z"/>
<path d="M4801 2984 c0 -11 3 -14 6 -6 3 7 2 16 -1 19 -3 4 -6 -2 -5 -13z"/>
<path d="M6640 5230 c0 -5 4 -10 9 -10 6 0 13 5 16 10 3 6 -1 10 -9 10 -9 0
-16 -4 -16 -10z"/>
<path d="M1314 7258 l-19 -23 23 19 c21 18 27 26 19 26 -2 0 -12 -10 -23 -22z"/>
<path d="M1023 6915 c0 -8 4 -12 9 -9 5 3 6 10 3 15 -9 13 -12 11 -12 -6z"/>
<path d="M976 6853 c-6 -14 -5 -15 5 -6 7 7 10 15 7 18 -3 3 -9 -2 -12 -12z"/>
<path d="M912 6773 c-12 -15 -22 -32 -22 -38 0 -5 8 -1 16 10 8 11 19 19 23
18 4 -1 8 7 8 18 2 25 1 24 -25 -8z"/>
<path d="M898 6713 c-10 -2 -18 -8 -18 -13 0 -4 9 -6 20 -3 11 3 20 9 20 14 0
5 -1 8 -2 8 -2 -1 -11 -3 -20 -6z"/>
<path d="M935 6690 c-3 -5 -1 -10 4 -10 6 0 11 5 11 10 0 6 -2 10 -4 10 -3 0
-8 -4 -11 -10z"/>
<path d="M865 6640 c-4 -6 -10 -8 -14 -6 -3 3 -7 -4 -7 -15 0 -24 0 -24 20 6
9 14 14 25 12 25 -3 0 -8 -5 -11 -10z"/>
<path d="M896 6587 c3 -10 9 -15 12 -12 3 3 0 11 -7 18 -10 9 -11 8 -5 -6z"/>
<path d="M946 6588 c3 -5 10 -6 15 -3 13 9 11 12 -6 12 -8 0 -12 -4 -9 -9z"/>
<path d="M930 6560 c-8 -5 -12 -12 -9 -15 4 -3 12 1 19 10 14 17 11 19 -10 5z"/>
<path d="M901 6533 c3 -18 -1 -34 -9 -29 -4 2 -8 -4 -8 -15 0 -25 3 -24 21 10
10 20 11 32 5 36 -6 4 -10 3 -9 -2z"/>
<path d="M750 6260 c0 -5 5 -10 11 -10 5 0 7 5 4 10 -3 6 -8 10 -11 10 -2 0
-4 -4 -4 -10z"/>
<path d="M7911 5874 c0 -11 3 -14 6 -6 3 7 2 16 -1 19 -3 4 -6 -2 -5 -13z"/>
<path d="M2320 1479 c0 -5 5 -7 10 -4 6 3 10 8 10 11 0 2 -4 4 -10 4 -5 0 -10
-5 -10 -11z"/>
<path d="M3500 1156 c0 -2 11 -6 25 -8 13 -3 22 -1 19 3 -5 9 -44 13 -44 5z"/>
</g>
</svg>
